<?xml version="1.0" encoding="UTF-8"?>
<svg id="Layer_1" data-name="Layer 1" xmlns="http://www.w3.org/2000/svg" viewBox="0 0 400 400">
  <defs>
    <style>
      .cls-1 {
        fill: #fff;
        stroke-width: 0px;
      }
    </style>
  </defs>
  <g>
    <path class="cls-1" d="M102.96,229.88h22.71c-3.37-8.35-5.32-17.28-5.7-26.47-.1-2.06,1.5-3.79,3.57-3.89,2.07-.06,3.79,1.51,3.88,3.58.78,18.41,8.46,35.66,21.63,48.6,1.47,1.44,1.49,3.8.05,5.27-.72.75-1.69,1.12-2.66,1.12s-1.89-.36-2.61-1.07c-6-5.88-10.96-12.57-14.77-19.83-.32.1-.66.15-1.01.15h-25.08c-1.23,1.93-3.39,3.21-5.85,3.21-3.83,0-6.93-3.1-6.93-6.93s3.1-6.93,6.93-6.93c2.45,0,4.61,1.28,5.84,3.21Z"/>
    <path class="cls-1" d="M279.64,200c0,44.04-35.83,79.87-79.87,79.87h-106.31c-1.23,1.93-3.39,3.21-5.85,3.21-3.82,0-6.93-3.1-6.93-6.93s3.11-6.93,6.93-6.93c2.46,0,4.61,1.28,5.85,3.21h106.31c39.93,0,72.41-32.49,72.41-72.41,0-2.06,1.67-3.73,3.73-3.73s3.73,1.67,3.73,3.73Z"/>
    <path class="cls-1" d="M288.46,159.02h-20.14c2.7,4.46,4.93,9.19,6.69,14.1.69,1.94-.32,4.07-2.26,4.76-.42.15-.84.22-1.26.22-1.52,0-2.96-.95-3.5-2.48-4.12-11.53-11.18-21.91-20.43-30.04-1.54-1.36-1.69-3.72-.34-5.26,1.36-1.54,3.72-1.69,5.26-.34,3.98,3.5,7.6,7.38,10.78,11.58h25.19c1.23-1.93,3.39-3.21,5.85-3.21,3.83,0,6.95,3.1,6.95,6.93s-3.11,6.93-6.95,6.93c-2.45,0-4.61-1.28-5.84-3.21Z"/>
    <path class="cls-1" d="M81.35,192.19c-1.23,1.93-3.39,3.21-5.85,3.21-3.83,0-6.93-3.1-6.93-6.93s3.1-6.93,6.93-6.93c2.46,0,4.62,1.28,5.85,3.21h43.46c2.06,0,3.73,1.67,3.73,3.73s-1.67,3.73-3.73,3.73h-43.46Z"/>
    <path class="cls-1" d="M124.53,173.12c1.31-3.65,2.9-7.25,4.73-10.69,13.56-25.4,39.52-41.43,68.15-42.27.79-.02,1.57-.03,2.35-.03h104.44c1.21-1.93,3.38-3.21,5.84-3.21,3.82,0,6.93,3.1,6.93,6.93s-3.11,6.93-6.93,6.93c-2.46,0-4.61-1.28-5.84-3.21h-104.44c-26.8,0-51.29,14.7-63.92,38.36-1.66,3.11-3.11,6.37-4.29,9.68-.54,1.52-1.98,2.48-3.5,2.48-.42,0-.84-.07-1.26-.22-1.94-.69-2.95-2.82-2.26-4.76Z"/>
    <path class="cls-1" d="M331.43,186.73c0,3.82-3.11,6.93-6.93,6.93-2.46,0-4.62-1.28-5.85-3.21h-42.74c-2.06,0-3.73-1.67-3.73-3.73s1.67-3.73,3.73-3.73h42.74c1.23-1.93,3.39-3.21,5.85-3.21,3.82,0,6.93,3.1,6.93,6.93Z"/>
  </g>
  <path class="cls-1" d="M246.82,161.69l-37.37,54.4v.34h-3.72l-28.11-39.49h-14.41l-10.48-15.25h23.83l23.22,33.8,23.22-33.8h23.83ZM202.15,221.78h3.72v32.57h-19.63v-33.33l-26.61-38.74h14.42l28.11,39.49Z"/>
</svg>